<?xml version="1.0" standalone="no"?>
<!DOCTYPE svg PUBLIC "-//W3C//DTD SVG 20010904//EN"
 "http://www.w3.org/TR/2001/REC-SVG-20010904/DTD/svg10.dtd">
<svg version="1.0" xmlns="http://www.w3.org/2000/svg"
 width="1000.000000pt" height="383.000000pt" viewBox="0 0 1000.000000 383.000000"
 preserveAspectRatio="xMidYMid meet">
<g transform="translate(0.000000,383.000000) scale(0.100000,-0.100000)"
fill="#3a7d1e" stroke="none">
<path d="M0 3778 l0 -53 20 33 c11 18 34 41 52 52 l33 20 -52 0 -53 0 0 -52z
M3725 3811 c17 -10 39 -28 50 -41 20 -22 20 -38 23 -701 l2 -679 -185 0 -185
0 0 330 c0 321 -1 331 -21 351 -13 13 -29 19 -42 16 -12 -3 -58 -11 -102 -17
-103 -14 -143 -27 -155 -50 -6 -11 -10 -141 -10 -324 l0 -306 -200 0 c-245 0
-240 3 -240 -119 0 -85 10 -106 53 -116 19 -4 365 -45 381 -45 2 0 6 -294 8
-652 3 -642 4 -654 26 -718 42 -127 114 -202 227 -236 68 -20 240 -33 353 -25
l92 6 0 -190 c0 -209 -4 -225 -66 -266 -28 -18 -83 -19 -1835 -19 l-1806 0
-28 22 c-15 12 -36 35 -46 52 l-19 31 0 -57 0 -58 5000 0 5000 0 0 262 c0 204
-3 259 -12 250 -13 -13 -315 -17 -334 -4 -6 4 -133 187 -283 407 -149 220
-275 401 -279 402 -4 2 -133 -181 -287 -405 l-280 -407 -155 0 -155 0 -3 31
c-3 25 49 105 347 533 l351 504 -34 46 c-117 163 -507 724 -519 748 -18 37
-11 62 19 74 14 5 85 9 157 9 103 0 137 -3 155 -15 12 -9 110 -145 217 -303
108 -158 199 -288 203 -289 4 -1 92 126 197 283 104 157 200 295 214 305 20
16 41 19 148 19 68 0 133 -5 144 -10 21 -12 25 -50 9 -81 -6 -10 -126 -184
-267 -386 -141 -203 -256 -373 -256 -378 0 -6 158 -239 351 -519 l352 -509 0
1632 0 1631 -3152 0 c-3074 0 -3152 -1 -3123 -19z m872 -611 c17 -6 35 -22 42
-36 7 -17 11 -137 11 -385 0 -339 1 -360 18 -355 54 17 231 30 397 30 164 0
202 -3 280 -22 315 -79 501 -301 560 -666 20 -123 20 -458 0 -590 -18 -118
-69 -273 -116 -352 -110 -185 -296 -304 -532 -340 -215 -33 -839 18 -917 75
l-25 18 -3 1287 c-1 899 1 1293 9 1307 5 11 20 24 32 29 31 12 208 12 244 0z
m2803 -770 c143 -35 241 -90 346 -195 80 -80 98 -104 142 -195 83 -170 112
-321 112 -575 0 -250 -30 -406 -110 -571 -88 -181 -234 -309 -425 -373 -119
-39 -244 -55 -375 -47 -328 19 -552 158 -680 421 -87 178 -116 355 -107 640
11 330 86 543 248 705 97 98 245 174 384 199 33 6 71 13 85 15 62 11 298 -4
380 -24z m-3600 -1005 l0 -685 -100 0 c-185 0 -237 26 -259 130 -7 34 -11 254
-11 645 l0 595 185 0 185 0 0 -685z M4830 2154 c-14 -2 -60 -6 -102 -9 l-78
-7 0 -673 0 -673 88 -8 c48 -5 177 -8 287 -9 169 0 209 3 255 18 159 54 255
184 289 392 27 169 20 500 -14 630 -35 136 -111 242 -207 291 -87 44 -149 54
-328 53 -91 -1 -176 -3 -190 -5z M7000 2145 c-135 -38 -226 -114 -285 -236
-59 -123 -70 -194 -70 -444 0 -176 4 -235 18 -296 61 -261 228 -399 482 -399
258 1 419 125 487 377 29 109 37 426 14 560 -39 224 -136 359 -305 424 -74 29
-260 36 -341 14z M1023 3399 c-173 -29 -282 -119 -335 -279 -21 -61 -23 -87
-26 -397 l-3 -333 -199 0 c-174 0 -200 -2 -220 -18 -25 -20 -36 -80 -26 -146
10 -62 28 -70 211 -90 83 -9 169 -19 193 -22 l42 -6 0 -783 0 -784 26 -20 c23
-18 41 -21 135 -21 59 0 115 3 124 6 45 18 45 17 45 834 l0 770 455 0 455 0 0
-784 0 -785 26 -20 c24 -18 41 -21 141 -21 108 0 115 1 138 25 l25 24 0 896 0
896 -25 24 -24 25 -596 0 -595 0 0 293 c0 451 3 455 295 464 88 3 166 10 173
15 8 7 12 40 12 98 0 105 -7 114 -106 135 -75 16 -257 18 -341 4z M1911 3174
c-18 -24 -21 -41 -21 -141 0 -175 7 -182 178 -183 170 0 176 7 170 200 -4 150
-4 150 -178 150 -127 0 -129 0 -149 -26z"/>
</g>
</svg>
