<?xml version="1.0" standalone="no"?>
<!DOCTYPE svg PUBLIC "-//W3C//DTD SVG 20010904//EN"
 "http://www.w3.org/TR/2001/REC-SVG-20010904/DTD/svg10.dtd">
<svg version="1.0" xmlns="http://www.w3.org/2000/svg"
 width="1536.000000pt" height="1024.000000pt" viewBox="0 0 1536.000000 1024.000000"
 preserveAspectRatio="xMidYMid meet">
<g transform="translate(0.000000,1024.000000) scale(0.100000,-0.100000)"
fill="#3d3d3d" stroke="none">
<path d="M0 5120 l0 -5120 7680 0 7680 0 0 5120 0 5120 -7680 0 -7680 0 0
-5120z m13898 4734 c27 -19 28 -34 3 -83 -36 -69 -440 -610 -734 -981 -343
-433 -593 -772 -817 -1105 -140 -210 -138 -207 -426 -560 -159 -195 -323 -367
-453 -478 -137 -115 -367 -264 -550 -355 -266 -134 -508 -216 -936 -320 -272
-67 -323 -53 -404 111 -32 63 -76 119 -57 72 5 -11 37 -111 72 -223 35 -111
-87 -260 115 -330 123 -305 141 -363 205 -677 14 -72 71 -261 144 -475 l119
-354 69 -12 c519 -87 851 -494 880 -1082 l7 -132 -972 0 -971 0 4 -57 c7 -101
15 -156 30 -218 93 -377 395 -615 779 -615 265 0 438 64 594 220 85 85 144
177 168 263 l16 57 152 0 152 0 -13 -58 c-35 -151 -119 -294 -252 -426 -208
-208 -457 -300 -817 -300 -168 -1 -262 13 -395 56 -210 68 -410 222 -533 410
-165 252 -222 635 -152 1008 65 344 327 671 626 784 43 16 47 21 52 58 3 23
11 45 19 49 22 14 140 57 191 70 27 6 51 18 54 27 4 8 -2 38 -11 66 -63 182
-109 286 -294 666 -106 218 -172 362 -172 374 0 4 -20 57 -44 120 -25 62 -56
148 -70 190 -29 89 -56 136 -176 301 -119 165 -148 207 -204 300 -101 165
-151 190 -316 160 -179 -33 -219 -37 -278 -24 -115 23 -165 67 -243 210 -24
44 -70 120 -103 169 -54 83 -59 94 -64 159 -8 121 44 223 151 292 81 53 146
70 261 70 86 1 100 -2 167 -34 99 -45 151 -101 223 -237 74 -138 100 -159 185
-143 31 6 94 21 141 33 78 21 99 22 250 17 131 -5 212 -14 395 -47 207 -37
247 -41 398 -42 l168 -1 72 36 c40 20 106 66 147 103 118 104 186 148 351 228
172 84 251 142 341 252 135 166 250 268 558 494 314 230 448 352 579 525 231
307 352 437 581 627 227 188 310 270 377 368 40 59 86 152 107 217 18 55 50
103 69 103 6 0 23 -11 37 -25 27 -26 27 -26 76 -9 27 9 109 47 183 85 74 38
142 69 151 69 8 0 26 -7 38 -16z"/>
</g>
</svg>
