<?xml version="1.0" standalone="no"?>
<!DOCTYPE svg PUBLIC "-//W3C//DTD SVG 20010904//EN"
 "http://www.w3.org/TR/2001/REC-SVG-20010904/DTD/svg10.dtd">
<svg version="1.0" xmlns="http://www.w3.org/2000/svg"
 width="1536.000000pt" height="1024.000000pt" viewBox="0 0 1536.000000 1024.000000"
 preserveAspectRatio="xMidYMid meet">
<g transform="translate(0.000000,1024.000000) scale(0.100000,-0.100000)"
fill="#3d3d3d" stroke="none">
<path d="M13714 9802 c-77 -38 -161 -77 -187 -87 l-48 -18 -27 26 c-16 15 -33
27 -38 27 -20 0 -42 -36 -74 -120 -74 -195 -173 -314 -450 -545 -269 -224
-363 -323 -590 -625 -141 -187 -255 -292 -585 -540 -334 -252 -381 -291 -496
-419 -46 -52 -119 -130 -162 -173 -73 -73 -91 -84 -252 -163 -170 -84 -208
-109 -403 -269 -29 -24 -74 -53 -99 -66 -102 -51 -313 -49 -618 6 -104 19
-235 39 -290 45 -142 16 -333 7 -415 -20 -170 -55 -204 -41 -289 122 -66 127
-119 185 -210 230 -63 31 -70 32 -191 32 -121 0 -127 -1 -192 -33 -157 -76
-235 -222 -199 -369 7 -25 34 -78 60 -117 27 -39 72 -114 101 -166 65 -116
119 -171 191 -195 64 -22 169 -22 259 -2 217 50 283 26 382 -139 25 -44 85
-133 133 -199 200 -279 229 -329 270 -455 61 -194 169 -443 348 -806 115 -232
227 -506 227 -555 0 -22 -10 -27 -134 -64 -99 -30 -136 -58 -136 -104 0 -22
-6 -31 -22 -36 -13 -4 -54 -23 -93 -42 -242 -122 -424 -337 -521 -618 -77
-220 -87 -574 -24 -820 75 -294 265 -539 520 -669 175 -89 320 -121 550 -120
283 1 487 57 672 182 80 54 215 189 267 265 41 61 100 186 117 252 25 91 34
85 -135 85 l-149 0 -6 -32 c-3 -18 -19 -60 -35 -93 -96 -203 -288 -349 -517
-396 -143 -30 -355 -23 -467 15 -277 93 -447 278 -531 576 -13 45 -35 207 -36
268 0 9 201 12 973 12 l972 0 -7 123 c-9 154 -21 231 -53 343 -115 402 -431
686 -831 748 -65 10 -78 15 -79 31 -3 25 -61 204 -155 480 -39 116 -83 264
-96 330 -65 316 -92 410 -163 576 -57 134 -115 297 -166 464 -20 66 -45 143
-55 170 -10 28 -21 59 -25 70 -9 28 35 -44 86 -138 91 -168 123 -169 671 -21
370 100 695 243 967 425 271 181 405 309 704 668 206 247 295 364 417 546 79
119 156 228 335 479 46 64 379 498 480 626 268 338 667 868 722 959 18 30 33
63 33 72 0 18 -35 49 -56 49 -6 0 -74 -31 -150 -68z m-3429 -5986 c100 -30
156 -59 230 -120 114 -95 191 -206 246 -356 39 -107 63 -231 46 -242 -18 -12
-1605 -10 -1612 2 -7 11 18 142 42 215 28 89 102 221 159 284 100 110 222 184
372 226 80 23 101 24 257 21 149 -3 181 -7 260 -30z M11550 4015 l0 -35 135 0
135 0 -2 -192 -3 -192 -130 0 -130 -1 0 -33 0 -33 318 -2 317 -2 0 32 c0 27
-4 32 -30 38 -16 4 -51 6 -77 5 -27 -1 -83 -1 -126 -1 l-77 1 2 188 3 187 153
3 152 3 0 34 0 35 -320 0 -320 0 0 -35z M3530 4026 c-114 -16 -173 -33 -273
-79 -124 -57 -264 -164 -333 -256 l-34 -44 0 167 0 166 -150 0 -150 0 0 -1475
0 -1476 148 3 147 3 3 523 c1 287 6 522 10 522 4 0 29 -22 56 -50 235 -240
609 -343 1016 -281 273 41 432 116 613 290 225 216 339 534 324 904 -13 313
-113 552 -321 765 -215 222 -453 318 -806 327 -96 3 -191 -1 -250 -9z m302
-227 c184 -14 302 -56 443 -159 142 -104 255 -289 307 -500 28 -113 30 -365 4
-483 -25 -112 -71 -227 -125 -310 -65 -98 -100 -137 -184 -200 -154 -116 -284
-157 -517 -164 -260 -8 -401 35 -589 180 -109 84 -208 238 -253 393 -21 72
-23 98 -22 304 0 210 2 232 26 321 26 95 83 224 133 296 13 20 48 62 77 91
136 141 288 216 468 231 41 4 82 7 90 8 8 1 72 -3 142 -8z M8435 3989 c-111
-26 -303 -153 -363 -239 -15 -22 -30 -39 -34 -40 -5 0 -8 61 -8 135 l0 135
-145 0 -145 0 0 -1110 0 -1110 145 0 144 0 3 722 c4 718 4 724 26 797 72 234
197 385 392 472 49 21 69 24 175 24 75 0 135 -5 159 -14 55 -19 71 -1 71 83 0
122 -54 155 -255 154 -69 0 -143 -4 -165 -9z M5370 3173 c0 -860 1 -865 50
-995 59 -158 218 -313 391 -382 106 -41 185 -56 329 -63 265 -11 507 54 714
191 47 32 119 88 159 126 l72 70 3 -180 2 -180 145 0 145 0 0 1110 0 1110
-144 0 -145 0 -4 -687 c-4 -754 -1 -720 -66 -858 -40 -87 -77 -139 -147 -207
-112 -108 -243 -185 -379 -223 -94 -26 -305 -31 -398 -11 -178 40 -303 139
-371 294 -53 122 -55 153 -56 955 l0 737 -150 0 -150 0 0 -807z M11874 3329
c-52 -12 -121 -71 -145 -123 -34 -74 -20 -195 28 -248 9 -10 14 -21 10 -24 -3
-3 -53 -5 -111 -5 l-106 1 0 -35 0 -35 320 0 320 0 0 30 c0 26 -4 30 -27 30
l-26 0 20 23 c105 113 75 295 -60 363 -56 29 -157 39 -223 23z m181 -78 c49
-22 101 -79 110 -121 8 -37 -9 -106 -34 -137 -37 -44 -82 -63 -154 -63 -136 0
-211 62 -208 174 1 65 37 121 94 147 54 24 139 24 192 0z M11874 2651 c-59 -7
-92 -27 -130 -77 -56 -73 -39 -214 32 -260 l25 -17 -34 -36 c-43 -47 -57 -81
-57 -141 0 -60 13 -96 48 -133 50 -53 67 -57 257 -57 l175 0 0 30 0 30 -157 0
c-137 0 -162 3 -198 20 -48 23 -65 53 -65 115 0 61 34 100 101 114 27 6 111
11 184 11 l135 0 0 30 0 30 -155 0 c-138 0 -161 2 -196 21 -55 28 -85 91 -69
148 24 89 78 111 281 111 l140 0 -3 30 -3 31 -130 3 c-71 2 -153 1 -181 -3z
M11700 1707 c-49 -16 -115 -87 -139 -151 -62 -166 1 -333 151 -402 58 -27 72
-29 173 -28 97 1 117 4 168 27 32 15 77 47 100 71 57 59 77 115 74 219 -2 72
-6 91 -34 145 l-33 62 64 0 c63 0 64 0 68 30 l5 30 -229 0 -228 0 0 -126 0
-125 28 3 c25 3 27 6 25 43 -2 22 0 64 3 93 l5 52 78 0 c95 0 132 -21 170 -93
51 -101 27 -235 -55 -302 -57 -47 -116 -65 -218 -67 -90 -1 -145 17 -205 68
-91 76 -98 246 -15 343 18 21 48 44 66 52 37 15 48 26 48 52 0 19 -18 20 -70
4z M3935 1506 c-45 -19 -59 -43 -65 -105 -5 -55 -6 -56 -40 -61 -29 -4 -35
-9 -35 -30 0 -21 5 -26 32 -28 29 -3 31 -6 36 -50 2 -26 3 -100 2 -164 l-3
-118 37 0 36 0 -3 165 -3 165 61 0 60 0 0 30 0 30 -60 0 -60 0 0 34 c0 54 29
81 87 81 45 0 48 1 45 25 -1 13 -8 28 -15 32 -19 12 -79 9 -112 -6z M4168
1513 c-27 -7 -25 -73 1 -73 11 0 26 -3 35 -6 13 -5 16 2 16 40 0 48 -5 52 -52
39z M7200 1506 c-72 -26 -103 -126 -60 -191 27 -41 25 -46 -21 -75 -54 -33
-94 -113 -84 -167 17 -94 95 -146 212 -142 58 2 73 7 122 40 l56 38 31 -30
c40 -38 101 -50 120 -24 16 22 19 49 4 40 -11 -7 -70 26 -90 50 -9 11 -4 24
27 64 21 28 53 71 71 96 l33 45 -43 0 c-41 0 -44 -2 -70 -48 -15 -26 -38 -60
-52 -77 l-25 -30 -70 69 c-78 78 -79 81 -5 126 60 38 83 133 45 182 -35 44
-129 60 -201 34z m134 -67 c14 -11 26 -29 26 -39 0 -41 -90 -117 -124 -104
-18 7 -46 64 -46 93 0 11 10 32 22 46 28 32 84 34 122 4z m-42 -296 c43 -43
78 -83 78 -90 0 -17 -65 -49 -115 -57 -50 -9 -108 13 -131 49 -26 41 -13 103
30 142 20 18 41 33 48 33 6 0 47 -35 90 -77z M7990 1226 l0 -276 35 0 35 0 1
113 c0 61 5 128 12 147 33 94 186 108 228 21 7 -15 14 -82 17 -153 l4 -128 29
0 29 0 0 146 c0 170 -10 203 -71 234 -56 29 -143 27 -203 -5 l-47 -25 2 97 2
98 -37 3 -36 3 0 -275z M9620 1225 l0 -275 35 0 35 0 0 275 0 275 -35 0 -35 0
0 -275z M10190 1224 l0 -275 30 3 30 3 4 125 c4 143 13 173 57 196 61 31 169
1 183 -51 3 -11 6 -77 6 -147 l0 -128 36 0 36 0 -4 159 c-3 154 -4 160 -28
187 -55 59 -171 73 -247 30 l-43 -25 3 100 2 99 -32 0 -33 0 0 -276z M4410
1405 l0 -65 -40 0 c-38 0 -40 -2 -40 -30 0 -28 2 -30 39 -30 l40 0 3 -144 c3
-137 4 -146 27 -170 54 -57 178 -41 154 20 -4 12 -14 14 -39 9 -26 -4 -38 -1
-54 15 -18 18 -20 33 -20 145 l0 125 50 0 c49 0 50 1 50 30 0 29 -1 30 -50 30
l-50 0 0 65 0 65 -35 0 -35 0 0 -65z M9897 1464 c-4 -4 -7 -34 -7 -66 0 -51
-2 -58 -19 -58 -35 0 -51 -12 -51 -36 0 -21 5 -24 35 -24 l35 0 0 -117 c0
-195 19 -226 132 -221 61 3 63 4 66 32 3 27 3 28 -35 21 -31 -5 -45 -2 -64 14
-23 18 -24 26 -27 145 l-4 126 57 0 c56 0 56 0 53 28 -3 25 -6 27 -56 30 l-53
3 2 62 3 62 -30 3 c-16 2 -33 0 -37 -4z M6364 1350 c-42 -6 -89 -31 -111 -59
-20 -26 -16 -95 8 -125 20 -26 62 -41 182 -66 69 -14 92 -32 76 -62 -28 -51
-136 -60 -234 -18 -26 11 -49 20 -51 20 -3 0 -4 -15 -2 -32 5 -50 58 -72 173
-73 104 0 138 13 172 64 30 44 29 82 -2 119 -30 35 -58 47 -150 62 -87 14
-114 30 -108 63 9 48 97 62 186 30 47 -17 49 -17 63 2 8 10 14 22 14 27 0 30
-132 59 -216 48z M8717 1349 c-133 -15 -213 -136 -177 -269 15 -57 80 -124
135 -139 82 -22 190 -7 235 34 18 16 16 37 -5 63 -1 1 -24 -9 -50 -23 -88 -46
-187 -25 -230 50 -14 23 -25 45 -25 48 0 4 81 7 181 7 l180 0 -7 48 c-19 132
-103 197 -237 181z m103 -74 c35 -18 60 -52 60 -82 0 -23 -1 -23 -135 -23
-125 0 -135 1 -135 19 0 26 38 71 74 87 41 18 100 17 136 -1z M4830 1343 c-8
-3 -27 -17 -42 -31 l-28 -26 0 28 c0 25 -3 27 -37 24 -21 -2 -37 -6 -35 -10 1
-5 2 -91 2 -193 l0 -185 35 0 35 0 0 113 c0 156 13 193 75 217 49 19 92 12
127 -19 l33 -29 3 -141 4 -141 34 0 34 0 0 133 c0 153 -9 192 -50 232 -28 27
-39 30 -103 32 -40 1 -79 0 -87 -4z M5299 1327 c-28 -15 -54 -40 -73 -70 -76
-122 -15 -278 123 -317 79 -22 175 -7 227 36 l29 23 -22 22 -21 22 -32 -23
c-35 -25 -92 -36 -143 -26 -44 8 -106 63 -113 99 l-5 28 163 -1 c90 0 169 -1
176 0 32 1 1 127 -43 173 -59 61 -185 77 -266 34z m174 -51 c39 -16 63 -42 72
-78 l7 -28 -141 0 -141 0 6 28 c18 75 114 113 197 78z M5790 1329 c-49 -31
-59 -48 -60 -100 0 -69 32 -95 146 -115 126 -22 164 -54 115 -98 -34 -30 -109
-32 -181 -2 -68 27 -80 24 -80 -20 0 -46 148 -78 249 -54 93 22 135 96 95 169
-22 41 -53 54 -162 71 -82 13 -118 35 -108 67 14 45 106 56 192 24 l51 -20 11
23 c21 46 -22 68 -143 73 -80 4 -94 2 -125 -18z M9153 1330 c-35 -15 -43 -24
-43 -45 0 -34 21 -40 61 -19 18 9 60 19 94 21 55 4 63 2 93 -24 17 -15 33 -39
35 -52 2 -24 -1 -25 -68 -28 -161 -8 -226 -39 -240 -115 -14 -73 55 -137 147
-138 48 0 127 26 156 53 l22 20 0 -26 c0 -23 4 -27 31 -27 l30 0 -3 153 c-3
149 -4 155 -30 188 -32 43 -80 59 -174 59 -46 0 -83 -7 -111 -20z m242 -210
c4 -6 1 -26 -5 -45 -23 -68 -131 -106 -201 -69 -25 13 -30 20 -27 47 5 48 42
62 210 76 9 0 20 -4 23 -9z M4158 1333 c-2 -5 -2 -92 0 -195 l3 -188 29 0 30
0 0 195 0 195 -29 0 c-17 0 -31 -3 -33 -7z M10924 1211 c-2 -2 -4 -17 -4 -33
l0 -28 116 0 c102 0 115 2 110 16 -3 9 -6 22 -6 29 0 11 -25 14 -106 17 -58 2
-108 1 -110 -1z M3298 1180 l4 -30 114 0 114 0 0 30 0 30 -118 0 -119 0 5
-30z"/>
</g>
</svg>
